<svg width="96" height="16" viewBox="0 0 96 16" fill="none" xmlns="http://www.w3.org/2000/svg">
<g clip-path="url(#clip0_52_9)">
<rect width="16" height="16" rx="2" fill="white"/>
<path d="M5.4 13C5.36733 12.3513 5.33233 11.705 5.295 11.061C5.26233 10.4123 5.22733 9.766 5.19 9.122C5.15733 8.47333 5.12467 7.82467 5.092 7.176C5.61 7.15733 5.967 7.10833 6.163 7.029C6.36367 6.945 6.464 6.812 6.464 6.63C6.464 6.462 6.35667 6.35467 6.142 6.308C5.932 6.26133 5.568 6.25667 5.05 6.294C5.036 6.17267 5.02433 6.05133 5.015 5.93C5.01033 5.804 5.008 5.68267 5.008 5.566C5.30667 5.54267 5.547 5.50767 5.729 5.461C5.911 5.40967 6.044 5.34433 6.128 5.265C6.212 5.181 6.254 5.08067 6.254 4.964C6.254 4.77733 6.13267 4.65833 5.89 4.607C5.64733 4.55567 5.33 4.54867 4.938 4.586C4.924 4.49267 4.91467 4.40167 4.91 4.313C4.91 4.21967 4.91 4.12867 4.91 4.04C4.91 3.746 4.98 3.54067 5.12 3.424C5.26467 3.30733 5.498 3.242 5.82 3.228C6.506 3.2 7.17333 3.2 7.822 3.228C8.47067 3.25133 9.07733 3.30267 9.642 3.382C9.97333 3.424 10.2137 3.515 10.363 3.655C10.517 3.795 10.594 3.96067 10.594 4.152C10.594 4.418 10.5077 4.61633 10.335 4.747C10.167 4.873 9.96867 4.98267 9.74 5.076C9.39 5.216 9.06333 5.32567 8.76 5.405C8.45667 5.47967 8.16733 5.57533 7.892 5.692C7.77533 5.73867 7.675 5.78533 7.591 5.832C7.51167 5.87867 7.444 5.93 7.388 5.986C7.332 6.04667 7.28767 6.11667 7.255 6.196C7.227 6.27533 7.206 6.378 7.192 6.504C7.178 6.62067 7.16867 6.73733 7.164 6.854C7.164 6.966 7.164 7.08267 7.164 7.204C7.164 7.36267 7.19433 7.477 7.255 7.547C7.31567 7.61233 7.45333 7.638 7.668 7.624C7.976 7.60067 8.284 7.56567 8.592 7.519C8.9 7.47233 9.208 7.442 9.516 7.428C9.71667 7.41867 9.866 7.46533 9.964 7.568C10.062 7.67067 10.111 7.78733 10.111 7.918C10.111 8.03933 10.069 8.15833 9.985 8.275C9.901 8.387 9.77733 8.45467 9.614 8.478C9.25 8.52 8.9 8.54567 8.564 8.555C8.228 8.55967 7.892 8.58533 7.556 8.632C7.36 8.65067 7.25267 8.72067 7.234 8.842C7.21533 8.95867 7.28533 9.04967 7.444 9.115C7.668 9.20833 7.88967 9.283 8.109 9.339C8.32833 9.395 8.55 9.472 8.774 9.57C8.89533 9.62133 8.984 9.69367 9.04 9.787C9.096 9.88033 9.124 9.97833 9.124 10.081C9.124 10.249 9.05167 10.396 8.907 10.522C8.767 10.6433 8.57333 10.662 8.326 10.578C8.12533 10.508 7.93633 10.4287 7.759 10.34C7.58633 10.2513 7.402 10.1767 7.206 10.116C7.01 10.0507 6.86067 10.046 6.758 10.102C6.66 10.1533 6.604 10.2747 6.59 10.466C6.55733 10.872 6.541 11.292 6.541 11.726C6.54567 12.16 6.52933 12.5847 6.492 13C6.48267 13.1213 6.45233 13.2193 6.401 13.294C6.34967 13.3733 6.28433 13.4293 6.205 13.462C6.12567 13.4993 6.03933 13.518 5.946 13.518C5.80133 13.518 5.67533 13.476 5.568 13.392C5.46067 13.3127 5.40467 13.182 5.4 13ZM7.752 5.02C7.92 5.02 8.053 4.96167 8.151 4.845C8.249 4.72833 8.298 4.57667 8.298 4.39C8.298 4.24067 8.24667 4.117 8.144 4.019C8.046 3.921 7.934 3.872 7.808 3.872C7.57 3.872 7.39967 3.921 7.297 4.019C7.199 4.11233 7.15 4.25 7.15 4.432C7.15 4.60467 7.199 4.747 7.297 4.859C7.39967 4.96633 7.55133 5.02 7.752 5.02Z" fill="#3F51B5"/>
<path d="M33.4 13C33.3673 12.3513 33.3323 11.705 33.295 11.061C33.2623 10.4123 33.2273 9.766 33.19 9.122C33.1573 8.47333 33.1247 7.82467 33.092 7.176C33.61 7.15733 33.967 7.10833 34.163 7.029C34.3637 6.945 34.464 6.812 34.464 6.63C34.464 6.462 34.3567 6.35467 34.142 6.308C33.932 6.26133 33.568 6.25667 33.05 6.294C33.036 6.17267 33.0243 6.05133 33.015 5.93C33.0103 5.804 33.008 5.68267 33.008 5.566C33.3067 5.54267 33.547 5.50767 33.729 5.461C33.911 5.40967 34.044 5.34433 34.128 5.265C34.212 5.181 34.254 5.08067 34.254 4.964C34.254 4.77733 34.1327 4.65833 33.89 4.607C33.6473 4.55567 33.33 4.54867 32.938 4.586C32.924 4.49267 32.9147 4.40167 32.91 4.313C32.91 4.21967 32.91 4.12867 32.91 4.04C32.91 3.746 32.98 3.54067 33.12 3.424C33.2647 3.30733 33.498 3.242 33.82 3.228C34.506 3.2 35.1733 3.2 35.822 3.228C36.4707 3.25133 37.0773 3.30267 37.642 3.382C37.9733 3.424 38.2137 3.515 38.363 3.655C38.517 3.795 38.594 3.96067 38.594 4.152C38.594 4.418 38.5077 4.61633 38.335 4.747C38.167 4.873 37.9687 4.98267 37.74 5.076C37.39 5.216 37.0633 5.32567 36.76 5.405C36.4567 5.47967 36.1673 5.57533 35.892 5.692C35.7753 5.73867 35.675 5.78533 35.591 5.832C35.5117 5.87867 35.444 5.93 35.388 5.986C35.332 6.04667 35.2877 6.11667 35.255 6.196C35.227 6.27533 35.206 6.378 35.192 6.504C35.178 6.62067 35.1687 6.73733 35.164 6.854C35.164 6.966 35.164 7.08267 35.164 7.204C35.164 7.36267 35.1943 7.477 35.255 7.547C35.3157 7.61233 35.4533 7.638 35.668 7.624C35.976 7.60067 36.284 7.56567 36.592 7.519C36.9 7.47233 37.208 7.442 37.516 7.428C37.7167 7.41867 37.866 7.46533 37.964 7.568C38.062 7.67067 38.111 7.78733 38.111 7.918C38.111 8.03933 38.069 8.15833 37.985 8.275C37.901 8.387 37.7773 8.45467 37.614 8.478C37.25 8.52 36.9 8.54567 36.564 8.555C36.228 8.55967 35.892 8.58533 35.556 8.632C35.36 8.65067 35.2527 8.72067 35.234 8.842C35.2153 8.95867 35.2853 9.04967 35.444 9.115C35.668 9.20833 35.8897 9.283 36.109 9.339C36.3283 9.395 36.55 9.472 36.774 9.57C36.8953 9.62133 36.984 9.69367 37.04 9.787C37.096 9.88033 37.124 9.97833 37.124 10.081C37.124 10.249 37.0517 10.396 36.907 10.522C36.767 10.6433 36.5733 10.662 36.326 10.578C36.1253 10.508 35.9363 10.4287 35.759 10.34C35.5863 10.2513 35.402 10.1767 35.206 10.116C35.01 10.0507 34.8607 10.046 34.758 10.102C34.66 10.1533 34.604 10.2747 34.59 10.466C34.5573 10.872 34.541 11.292 34.541 11.726C34.5457 12.16 34.5293 12.5847 34.492 13C34.4827 13.1213 34.4523 13.2193 34.401 13.294C34.3497 13.3733 34.2843 13.4293 34.205 13.462C34.1257 13.4993 34.0393 13.518 33.946 13.518C33.8013 13.518 33.6753 13.476 33.568 13.392C33.4607 13.3127 33.4047 13.182 33.4 13ZM35.752 5.02C35.92 5.02 36.053 4.96167 36.151 4.845C36.249 4.72833 36.298 4.57667 36.298 4.39C36.298 4.24067 36.2467 4.117 36.144 4.019C36.046 3.921 35.934 3.872 35.808 3.872C35.57 3.872 35.3997 3.921 35.297 4.019C35.199 4.11233 35.15 4.25 35.15 4.432C35.15 4.60467 35.199 4.747 35.297 4.859C35.3997 4.96633 35.5513 5.02 35.752 5.02ZM38.5247 11.698C38.6133 11.3527 38.7253 10.9233 38.8607 10.41C38.996 9.892 39.143 9.34133 39.3017 8.758C39.4603 8.17 39.6167 7.603 39.7707 7.057C40.046 7.169 40.298 7.25533 40.5267 7.316C40.76 7.372 40.9467 7.379 41.0867 7.337C41.2267 7.295 41.2967 7.18067 41.2967 6.994C41.2967 6.868 41.2057 6.74667 41.0237 6.63C40.8463 6.51333 40.501 6.392 39.9877 6.266C40.0297 6.10267 40.0717 5.94867 40.1137 5.804C40.1557 5.65467 40.1953 5.51467 40.2327 5.384C40.5547 5.51933 40.8603 5.629 41.1497 5.713C41.439 5.797 41.6747 5.82267 41.8567 5.79C42.0387 5.75733 42.1297 5.636 42.1297 5.426C42.1297 5.272 42.013 5.132 41.7797 5.006C41.5463 4.88 41.1077 4.74467 40.4637 4.6C40.4683 4.58133 40.4707 4.56733 40.4707 4.558C40.4753 4.544 40.48 4.52767 40.4847 4.509C40.606 4.103 40.8277 3.788 41.1497 3.564C41.4763 3.34 41.922 3.23267 42.4867 3.242C43.0653 3.242 43.518 3.37033 43.8447 3.627C44.1713 3.879 44.3767 4.28267 44.4607 4.838C44.47 4.908 44.4793 4.98267 44.4887 5.062C44.5027 5.13667 44.5143 5.216 44.5237 5.3C44.533 5.37467 44.5423 5.45167 44.5517 5.531C44.5657 5.61033 44.5773 5.692 44.5867 5.776C44.596 5.82267 44.603 5.86933 44.6077 5.916C44.617 5.96267 44.624 6.00933 44.6287 6.056C44.638 6.10267 44.645 6.15167 44.6497 6.203C44.6637 6.31033 44.6777 6.42 44.6917 6.532C44.7057 6.644 44.722 6.75833 44.7407 6.875C44.75 6.945 44.7593 7.01733 44.7687 7.092C44.7827 7.162 44.792 7.23667 44.7967 7.316C44.806 7.372 44.813 7.43033 44.8177 7.491C44.827 7.547 44.8363 7.60533 44.8457 7.666C44.855 7.722 44.862 7.78033 44.8667 7.841C44.9227 8.247 44.9763 8.66 45.0277 9.08C45.0837 9.5 45.1373 9.913 45.1887 10.319C45.24 10.725 45.2867 11.11 45.3287 11.474C45.3753 11.838 45.4173 12.1693 45.4547 12.468C45.4873 12.7247 45.4477 12.9393 45.3357 13.112C45.2237 13.2893 45.0627 13.378 44.8527 13.378C44.6707 13.378 44.5143 13.308 44.3837 13.168C44.2577 13.0327 44.1807 12.832 44.1527 12.566C44.064 11.726 43.9847 10.8533 43.9147 9.948C43.8447 9.038 43.7677 8.11867 43.6837 7.19C43.6557 6.868 43.5973 6.644 43.5087 6.518C43.42 6.392 43.273 6.329 43.0677 6.329C42.881 6.329 42.7037 6.385 42.5357 6.497C42.3723 6.609 42.188 6.87267 41.9827 7.288C41.586 8.09067 41.1917 8.912 40.7997 9.752C40.4123 10.592 40.032 11.3993 39.6587 12.174C39.5653 12.3653 39.4627 12.5053 39.3507 12.594C39.2387 12.678 39.1127 12.72 38.9727 12.72C38.772 12.72 38.6273 12.6243 38.5387 12.433C38.4547 12.2417 38.45 11.9967 38.5247 11.698ZM40.1487 10.55L40.4147 9.556C41.012 9.53267 41.607 9.50933 42.1997 9.486C42.7923 9.46267 43.3547 9.444 43.8867 9.43C44.1107 9.42067 44.295 9.45567 44.4397 9.535C44.5843 9.60967 44.6567 9.73333 44.6567 9.906C44.6567 10.0927 44.6053 10.228 44.5027 10.312C44.4047 10.396 44.26 10.4427 44.0687 10.452C43.4153 10.48 42.769 10.501 42.1297 10.515C41.4903 10.529 40.83 10.5407 40.1487 10.55ZM44.8667 11.866C44.7407 11.866 44.6287 11.8263 44.5307 11.747C44.4373 11.6677 44.3907 11.558 44.3907 11.418C44.3907 11.278 44.4327 11.1707 44.5167 11.096C44.6053 11.0213 44.722 10.984 44.8667 10.984C44.8947 10.984 44.9343 10.984 44.9857 10.984C45.037 10.984 45.086 10.984 45.1327 10.984V11.866C45.0907 11.8707 45.0463 11.873 44.9997 11.873C44.953 11.8683 44.9087 11.866 44.8667 11.866ZM39.4137 9.969C38.9937 9.84767 38.6693 9.74033 38.4407 9.647C38.212 9.55367 38.0533 9.46267 37.9647 9.374C37.8713 9.28067 37.8247 9.17567 37.8247 9.059C37.8247 8.835 37.9157 8.702 38.0977 8.66C38.275 8.618 38.5083 8.63667 38.7977 8.716C39.087 8.79533 39.3903 8.90733 39.7077 9.052L39.4137 9.969ZM39.8127 10.788C39.696 10.7507 39.5957 10.711 39.5117 10.669C39.4323 10.627 39.3717 10.578 39.3297 10.522C39.2877 10.466 39.2667 10.396 39.2667 10.312C39.2667 10.1347 39.2993 9.99467 39.3647 9.892C39.43 9.78933 39.5233 9.72633 39.6447 9.703C39.7707 9.67967 39.9247 9.70067 40.1067 9.766L39.8127 10.788ZM44.2087 8.898L44.1107 7.932C44.2787 7.91333 44.4163 7.91333 44.5237 7.932C44.631 7.95067 44.7103 8.002 44.7617 8.086C44.813 8.16533 44.8387 8.29133 44.8387 8.464C44.8387 8.632 44.785 8.73933 44.6777 8.786C44.5703 8.83267 44.414 8.87 44.2087 8.898ZM44.7057 10.41L44.6567 9.388C45.0487 9.374 45.3567 9.36933 45.5807 9.374C45.8093 9.37867 45.9703 9.42067 46.0637 9.5C46.1617 9.57467 46.2107 9.717 46.2107 9.927C46.2107 10.1183 46.108 10.2467 45.9027 10.312C45.702 10.3727 45.303 10.4053 44.7057 10.41ZM47.3437 13.28C47.2223 11.8427 47.1103 10.3633 47.0077 8.842C46.905 7.316 46.8257 5.83667 46.7697 4.404C46.7557 4.082 46.8023 3.82533 46.9097 3.634C47.0217 3.438 47.2317 3.34 47.5397 3.34C47.8477 3.34 48.053 3.43567 48.1557 3.627C48.263 3.81833 48.319 4.05867 48.3237 4.348C48.3377 4.768 48.3377 5.216 48.3237 5.692C48.3097 6.16333 48.3097 6.644 48.3237 7.134C48.333 7.33 48.3867 7.44667 48.4847 7.484C48.5873 7.52133 48.711 7.47467 48.8557 7.344C49.5837 6.69067 50.3117 6.01867 51.0397 5.328C51.7677 4.63733 52.4397 4.01667 53.0557 3.466C53.177 3.35867 53.2913 3.27467 53.3987 3.214C53.506 3.14867 53.604 3.116 53.6927 3.116C53.758 3.116 53.821 3.13233 53.8817 3.165C53.9423 3.19767 53.9913 3.242 54.0287 3.298C54.066 3.354 54.0847 3.417 54.0847 3.487C54.0847 3.585 54.0543 3.69233 53.9937 3.809C53.9377 3.92567 53.8607 4.04233 53.7627 4.159C53.4173 4.58833 53.0113 5.062 52.5447 5.58C52.0827 6.098 51.6137 6.644 51.1377 7.218C51.049 7.32067 50.9977 7.43033 50.9837 7.547C50.9743 7.66367 51.0117 7.78267 51.0957 7.904C51.6883 8.69733 52.176 9.35767 52.5587 9.885C52.946 10.4077 53.2517 10.83 53.4757 11.152C53.7043 11.4693 53.8723 11.7167 53.9797 11.894C54.087 12.0713 54.1547 12.2067 54.1827 12.3C54.2153 12.3887 54.2317 12.468 54.2317 12.538C54.2317 12.706 54.1757 12.8437 54.0637 12.951C53.9563 13.0583 53.821 13.112 53.6577 13.112C53.5643 13.112 53.4547 13.0887 53.3287 13.042C53.2027 13 53.0137 12.909 52.7617 12.769C52.5143 12.629 52.1597 12.419 51.6977 12.139C51.2403 11.859 50.629 11.4833 49.8637 11.012C49.663 10.886 49.502 10.7997 49.3807 10.753C49.264 10.7017 49.145 10.676 49.0237 10.676C48.8557 10.676 48.7297 10.732 48.6457 10.844C48.5617 10.9513 48.515 11.11 48.5057 11.32C48.4917 11.67 48.4847 12.02 48.4847 12.37C48.4893 12.72 48.487 12.9953 48.4777 13.196C48.4637 13.49 48.4147 13.707 48.3307 13.847C48.2467 13.9917 48.109 14.064 47.9177 14.064C47.745 14.064 47.612 13.994 47.5187 13.854C47.4253 13.714 47.367 13.5227 47.3437 13.28ZM53.2097 8.898C52.9577 8.898 52.764 8.83033 52.6287 8.695C52.4933 8.55967 52.4257 8.35667 52.4257 8.086C52.4257 7.876 52.4863 7.701 52.6077 7.561C52.7337 7.41633 52.9157 7.344 53.1537 7.344C53.4057 7.344 53.6087 7.407 53.7627 7.533C53.9167 7.65433 53.9937 7.82 53.9937 8.03C53.9937 8.31467 53.9167 8.53167 53.7627 8.681C53.6087 8.82567 53.4243 8.898 53.2097 8.898ZM51.7187 3.774C52.0593 4.026 52.3953 4.29667 52.7267 4.586C53.0627 4.87067 53.3917 5.16 53.7137 5.454C53.9097 5.62667 54.0357 5.78767 54.0917 5.937C54.1523 6.08633 54.1197 6.23567 53.9937 6.385C53.863 6.54833 53.7137 6.609 53.5457 6.567C53.3777 6.525 53.1957 6.42467 52.9997 6.266C52.645 5.97667 52.295 5.68967 51.9497 5.405C51.609 5.11567 51.2753 4.81 50.9487 4.488C50.79 4.334 50.6943 4.187 50.6617 4.047C50.6337 3.907 50.6757 3.77867 50.7877 3.662C50.895 3.54067 51.0303 3.49633 51.1937 3.529C51.357 3.557 51.532 3.63867 51.7187 3.774ZM51.5717 5.538L50.8717 6.21C50.7877 6.14467 50.7433 6.05367 50.7387 5.937C50.734 5.81567 50.7993 5.692 50.9347 5.566C51.056 5.43067 51.175 5.37467 51.2917 5.398C51.4083 5.42133 51.5017 5.468 51.5717 5.538ZM47.7777 11.964C47.829 11.9593 47.8757 11.9593 47.9177 11.964C47.9643 11.964 48.011 11.964 48.0577 11.964C48.179 11.964 48.27 11.999 48.3307 12.069C48.3913 12.1343 48.4217 12.244 48.4217 12.398C48.4217 12.566 48.3913 12.6873 48.3307 12.762C48.27 12.8367 48.179 12.874 48.0577 12.874C48.0157 12.874 47.976 12.874 47.9387 12.874C47.9013 12.874 47.8617 12.874 47.8197 12.874C47.689 12.874 47.5793 12.839 47.4907 12.769C47.402 12.6943 47.3577 12.5707 47.3577 12.398C47.3577 12.2347 47.3973 12.1227 47.4767 12.062C47.5607 11.9967 47.661 11.964 47.7777 11.964ZM47.6237 4.95C47.5117 4.95 47.4253 4.922 47.3647 4.866C47.304 4.81 47.2737 4.74 47.2737 4.656C47.2737 4.54867 47.2993 4.46933 47.3507 4.418C47.402 4.362 47.4977 4.334 47.6377 4.334C47.7077 4.334 47.766 4.35967 47.8127 4.411C47.864 4.46233 47.8897 4.53467 47.8897 4.628C47.8897 4.726 47.8663 4.80533 47.8197 4.866C47.773 4.922 47.7077 4.95 47.6237 4.95ZM51.1937 10.844C51.3197 10.844 51.4293 10.7927 51.5227 10.69C51.6207 10.5827 51.6697 10.4427 51.6697 10.27C51.6697 10.13 51.6253 10.011 51.5367 9.913C51.448 9.815 51.3383 9.766 51.2077 9.766C50.9837 9.766 50.825 9.81267 50.7317 9.906C50.6383 9.99933 50.5917 10.1347 50.5917 10.312C50.5917 10.4707 50.6383 10.599 50.7317 10.697C50.8297 10.795 50.9837 10.844 51.1937 10.844ZM49.6957 9.598C49.8777 9.598 50.027 9.53033 50.1437 9.395C50.265 9.25967 50.3257 9.11267 50.3257 8.954C50.3257 8.716 50.2533 8.53167 50.1087 8.401C49.964 8.26567 49.7797 8.198 49.5557 8.198C49.3877 8.198 49.2407 8.261 49.1147 8.387C48.9887 8.50833 48.9257 8.66933 48.9257 8.87C48.9257 9.08 48.9863 9.255 49.1077 9.395C49.229 9.53033 49.425 9.598 49.6957 9.598ZM55.5039 11.936C55.5039 11.2127 55.5086 10.5267 55.5179 9.878C55.5319 9.22933 55.5459 8.55267 55.5599 7.848C56.0033 7.848 56.3369 7.83167 56.5609 7.799C56.7849 7.76633 56.9343 7.71267 57.0089 7.638C57.0836 7.56333 57.1186 7.46533 57.1139 7.344C57.1093 7.232 57.0719 7.14333 57.0019 7.078C56.9366 7.01267 56.7943 6.97067 56.5749 6.952C56.3603 6.92867 56.0313 6.92867 55.5879 6.952C55.5879 6.84 55.5879 6.70233 55.5879 6.539C55.5926 6.371 55.5973 6.22867 55.6019 6.112C56.1153 6.08867 56.4419 6.03967 56.5819 5.965C56.7219 5.88567 56.7919 5.76667 56.7919 5.608C56.7919 5.44 56.7196 5.31633 56.5749 5.237C56.4303 5.15767 56.1059 5.12267 55.6019 5.132C55.6019 5.05267 55.6043 4.95933 55.6089 4.852C55.6183 4.74467 55.6253 4.61867 55.6299 4.474C55.6439 4.082 55.7606 3.81367 55.9799 3.669C56.1993 3.51967 56.4933 3.42867 56.8619 3.396C57.1419 3.37267 57.4219 3.34933 57.7019 3.326C57.9819 3.30267 58.2596 3.284 58.5349 3.27C58.8103 3.25133 59.0786 3.23733 59.3399 3.228C59.6059 3.21867 59.8626 3.214 60.1099 3.214C60.4833 3.214 60.7493 3.26767 60.9079 3.375C61.0666 3.48233 61.1459 3.65267 61.1459 3.886C61.1459 4.03533 61.1226 4.159 61.0759 4.257C61.0293 4.35033 60.9569 4.42033 60.8589 4.467C60.7656 4.509 60.6466 4.53 60.5019 4.53C60.4879 4.53 60.4693 4.53 60.4459 4.53C60.4273 4.53 60.4063 4.53 60.3829 4.53C60.3596 4.53 60.3363 4.53 60.3129 4.53C60.2523 4.52533 60.1916 4.523 60.1309 4.523C60.0749 4.523 60.0259 4.52067 59.9839 4.516C59.8439 4.50667 59.6946 4.49967 59.5359 4.495C59.3819 4.49033 59.2303 4.48567 59.0809 4.481C59.0483 4.481 59.0156 4.481 58.9829 4.481C58.9503 4.47633 58.9153 4.474 58.8779 4.474C58.8453 4.474 58.8126 4.474 58.7799 4.474C58.7473 4.46933 58.7146 4.467 58.6819 4.467C58.6539 4.467 58.6259 4.467 58.5979 4.467C58.5373 4.46233 58.4789 4.46 58.4229 4.46C58.3716 4.46 58.3226 4.46 58.2759 4.46C58.1079 4.46 57.9959 4.49733 57.9399 4.572C57.8839 4.64667 57.8653 4.81467 57.8839 5.076C57.9119 5.45867 57.9469 5.80633 57.9889 6.119C58.0309 6.43167 58.0799 6.77467 58.1359 7.148C58.1639 7.33 58.2059 7.45367 58.2619 7.519C58.3226 7.58433 58.4253 7.61 58.5699 7.596C58.7753 7.57267 58.9853 7.547 59.1999 7.519C59.4193 7.48633 59.6059 7.46067 59.7599 7.442C59.9419 7.41867 60.0773 7.46767 60.1659 7.589C60.2593 7.71033 60.3059 7.85267 60.3059 8.016C60.3059 8.17 60.2616 8.317 60.1729 8.457C60.0843 8.59233 59.9513 8.66467 59.7739 8.674C59.6713 8.67867 59.5639 8.68333 59.4519 8.688C59.3399 8.69267 59.2233 8.69733 59.1019 8.702C59.0506 8.70667 58.9993 8.709 58.9479 8.709C58.9013 8.709 58.8523 8.71133 58.8009 8.716C58.7543 8.716 58.7053 8.71833 58.6539 8.723C58.6073 8.723 58.5606 8.723 58.5139 8.723C58.4253 8.72767 58.3366 8.73233 58.2479 8.737C58.1639 8.737 58.0776 8.73933 57.9889 8.744C57.9609 8.744 57.9306 8.744 57.8979 8.744C57.8699 8.744 57.8396 8.74633 57.8069 8.751C57.7789 8.751 57.7486 8.751 57.7159 8.751C57.6879 8.751 57.6599 8.75333 57.6319 8.758C57.6039 8.758 57.5736 8.758 57.5409 8.758C57.5129 8.758 57.4849 8.76033 57.4569 8.765C57.3823 8.76967 57.3076 8.77433 57.2329 8.779C57.1629 8.78367 57.0953 8.786 57.0299 8.786C56.9273 8.79067 56.8433 8.83033 56.7779 8.905C56.7173 8.97967 56.7033 9.11267 56.7359 9.304C56.8013 9.64467 56.8759 9.983 56.9599 10.319C57.0439 10.6503 57.1373 10.9887 57.2399 11.334C57.2959 11.5207 57.3636 11.642 57.4429 11.698C57.5223 11.7493 57.6319 11.768 57.7719 11.754C58.2433 11.7027 58.7123 11.6467 59.1789 11.586C59.6503 11.5253 60.1333 11.474 60.6279 11.432C60.8426 11.4133 61.0013 11.4787 61.1039 11.628C61.2113 11.7773 61.2649 11.9407 61.2649 12.118C61.2649 12.2767 61.2206 12.4237 61.1319 12.559C61.0479 12.6943 60.9173 12.7667 60.7399 12.776C60.0213 12.804 59.2979 12.8157 58.5699 12.811C57.8466 12.8063 57.1233 12.804 56.3999 12.804C56.0779 12.804 55.8469 12.727 55.7069 12.573C55.5716 12.419 55.5039 12.2067 55.5039 11.936ZM57.4079 12.342L58.3179 12.356C58.3366 12.8833 58.3343 13.2753 58.3109 13.532C58.2923 13.7933 58.2456 13.966 58.1709 14.05C58.1009 14.134 58.0006 14.176 57.8699 14.176C57.7346 14.176 57.6319 14.1317 57.5619 14.043C57.4966 13.959 57.4523 13.7863 57.4289 13.525C57.4103 13.2637 57.4033 12.8693 57.4079 12.342ZM59.5499 13.966C59.5313 13.714 59.5149 13.4573 59.5009 13.196C59.4869 12.9393 59.4753 12.6827 59.4659 12.426C59.4613 12.132 59.4916 11.9313 59.5569 11.824C59.6269 11.712 59.7459 11.656 59.9139 11.656C60.0633 11.656 60.1729 11.7073 60.2429 11.81C60.3176 11.908 60.3619 12.076 60.3759 12.314C60.3899 12.58 60.4016 12.8437 60.4109 13.105C60.4203 13.3663 60.4273 13.63 60.4319 13.896C60.4413 14.134 60.4063 14.3067 60.3269 14.414C60.2523 14.526 60.1473 14.582 60.0119 14.582C59.8719 14.582 59.7646 14.5353 59.6899 14.442C59.6199 14.3533 59.5733 14.1947 59.5499 13.966ZM59.8579 10.802C59.6106 10.802 59.4193 10.7343 59.2839 10.599C59.1533 10.4637 59.0879 10.27 59.0879 10.018C59.0879 9.766 59.1509 9.58167 59.2769 9.465C59.4076 9.34833 59.5873 9.29 59.8159 9.29C60.0633 9.29 60.2546 9.353 60.3899 9.479C60.5299 9.605 60.5999 9.77067 60.5999 9.976C60.5999 10.256 60.5299 10.4637 60.3899 10.599C60.2546 10.7343 60.0773 10.802 59.8579 10.802ZM58.9479 3.718C58.9479 3.62467 58.9923 3.543 59.0809 3.473C59.1696 3.403 59.2699 3.368 59.3819 3.368C59.5033 3.368 59.6153 3.382 59.7179 3.41C59.8253 3.43333 59.8813 3.49867 59.8859 3.606C59.8953 3.65267 59.9023 3.70167 59.9069 3.753C59.9116 3.79967 59.9139 3.844 59.9139 3.886C59.9139 3.98867 59.8719 4.07733 59.7879 4.152C59.7039 4.22667 59.6013 4.264 59.4799 4.264C59.3679 4.264 59.2583 4.24533 59.1509 4.208C59.0483 4.166 58.9899 4.08667 58.9759 3.97C58.9713 3.928 58.9643 3.886 58.9549 3.844C58.9503 3.802 58.9479 3.76 58.9479 3.718ZM57.0439 4.18L56.9179 5.076C56.7499 5.05267 56.6193 5.01067 56.5259 4.95C56.4326 4.88467 56.3859 4.77267 56.3859 4.614C56.3859 4.418 56.4443 4.29667 56.5609 4.25C56.6823 4.20333 56.8433 4.18 57.0439 4.18ZM62.2495 11.25C62.2448 10.83 62.2425 10.4123 62.2425 9.997C62.2472 9.577 62.2495 9.157 62.2495 8.737C62.2495 8.31233 62.2518 7.89 62.2565 7.47C62.2658 7.05 62.2728 6.63 62.2775 6.21C62.2868 5.79 62.3008 5.37 62.3195 4.95C62.3288 4.69333 62.3732 4.49267 62.4525 4.348C62.5365 4.19867 62.6532 4.09133 62.8025 4.026C62.9565 3.956 63.1432 3.914 63.3625 3.9C63.5865 3.88133 63.8478 3.872 64.1465 3.872C64.7858 3.872 65.3668 3.91167 65.8895 3.991C66.4122 4.07033 66.8275 4.23133 67.1355 4.474C67.4482 4.712 67.6045 5.07133 67.6045 5.552C67.6045 5.93467 67.5462 6.231 67.4295 6.441C67.3128 6.64633 67.1798 6.798 67.0305 6.896C66.8812 6.98933 66.7505 7.05933 66.6385 7.106C66.5265 7.15267 66.4705 7.20867 66.4705 7.274C66.4705 7.32067 66.4845 7.35567 66.5125 7.379C66.5405 7.39767 66.5848 7.414 66.6455 7.428C67.0562 7.52133 67.4342 7.666 67.7795 7.862C68.1295 8.058 68.4095 8.33333 68.6195 8.688C68.8295 9.038 68.9345 9.49533 68.9345 10.06C68.9345 10.732 68.7688 11.3013 68.4375 11.768C68.1108 12.23 67.6512 12.58 67.0585 12.818C66.4658 13.0513 65.7752 13.168 64.9865 13.168C64.2678 13.168 63.7125 13.098 63.3205 12.958C62.9285 12.818 62.6532 12.6057 62.4945 12.321C62.3358 12.0363 62.2542 11.6793 62.2495 11.25ZM64.3915 4.81C64.1628 4.81 63.9785 4.82867 63.8385 4.866C63.7032 4.89867 63.6052 4.957 63.5445 5.041C63.4838 5.125 63.4535 5.244 63.4535 5.398C63.4535 5.636 63.4745 5.867 63.5165 6.091C63.5632 6.31033 63.6425 6.49233 63.7545 6.637C63.8665 6.78167 64.0205 6.854 64.2165 6.854C64.4685 6.854 64.7298 6.83067 65.0005 6.784C65.2712 6.73267 65.5208 6.658 65.7495 6.56C65.9782 6.45733 66.1648 6.33367 66.3095 6.189C66.4542 6.04433 66.5265 5.87867 66.5265 5.692C66.5265 5.426 66.4612 5.23233 66.3305 5.111C66.1998 4.985 65.9782 4.90333 65.6655 4.866C65.3575 4.82867 64.9328 4.81 64.3915 4.81ZM63.3835 10.466C63.3835 10.956 63.4045 11.3317 63.4465 11.593C63.4932 11.8497 63.6122 12.027 63.8035 12.125C63.9948 12.223 64.3098 12.272 64.7485 12.272C64.9585 12.272 65.1452 12.258 65.3085 12.23C65.4765 12.202 65.6188 12.1623 65.7355 12.111C65.8568 12.0597 65.9548 11.992 66.0295 11.908C66.1088 11.824 66.1672 11.7237 66.2045 11.607C66.2418 11.4857 66.2605 11.3503 66.2605 11.201C66.2605 10.8977 66.2208 10.5827 66.1415 10.256C66.0622 9.92467 65.9432 9.619 65.7845 9.339C65.6305 9.05433 65.4415 8.82567 65.2175 8.653C64.9935 8.47567 64.7438 8.387 64.4685 8.387C64.1558 8.387 63.9202 8.47333 63.7615 8.646C63.6075 8.81867 63.5048 9.06133 63.4535 9.374C63.4068 9.68667 63.3835 10.0507 63.3835 10.466ZM66.5615 8.87C66.6968 8.87 66.8065 8.83267 66.8905 8.758C66.9745 8.67867 67.0165 8.58067 67.0165 8.464C67.0165 8.30067 66.9698 8.17933 66.8765 8.1C66.7832 8.016 66.6688 7.974 66.5335 7.974C66.4028 7.974 66.3002 8.01367 66.2255 8.093C66.1508 8.16767 66.1135 8.29133 66.1135 8.464C66.1135 8.576 66.1555 8.67167 66.2395 8.751C66.3282 8.83033 66.4355 8.87 66.5615 8.87ZM67.6185 10.228C67.8145 10.228 67.9545 10.1743 68.0385 10.067C68.1272 9.95967 68.1715 9.808 68.1715 9.612C68.1715 9.46267 68.1248 9.34367 68.0315 9.255C67.9382 9.16633 67.8098 9.122 67.6465 9.122C67.4412 9.122 67.2872 9.16867 67.1845 9.262C67.0818 9.35067 67.0305 9.49067 67.0305 9.682C67.0305 9.85 67.0772 9.983 67.1705 10.081C67.2638 10.179 67.4132 10.228 67.6185 10.228ZM67.3665 11.698C67.5252 11.698 67.6488 11.6607 67.7375 11.586C67.8262 11.5067 67.8705 11.3807 67.8705 11.208C67.8705 11.11 67.8308 11.019 67.7515 10.935C67.6768 10.8463 67.5555 10.802 67.3875 10.802C67.2755 10.802 67.1798 10.8417 67.1005 10.921C67.0212 10.9957 66.9815 11.1007 66.9815 11.236C66.9815 11.376 67.0212 11.488 67.1005 11.572C67.1798 11.656 67.2685 11.698 67.3665 11.698ZM63.6145 4.152L62.7535 4.488C62.4595 3.97 62.2518 3.53833 62.1305 3.193C62.0092 2.84767 61.9742 2.591 62.0255 2.423C62.0768 2.25033 62.2192 2.164 62.4525 2.164C62.5692 2.164 62.6788 2.22233 62.7815 2.339C62.8888 2.45567 63.0055 2.661 63.1315 2.955C63.2622 3.24433 63.4232 3.64333 63.6145 4.152ZM64.2375 4.544L63.4465 4.446C63.4418 4.35267 63.4535 4.27333 63.4815 4.208C63.5095 4.14267 63.5515 4.089 63.6075 4.047C63.6635 4.005 63.7382 3.984 63.8315 3.984C63.9388 3.984 64.0252 4.00967 64.0905 4.061C64.1558 4.10767 64.2002 4.173 64.2235 4.257C64.2515 4.33633 64.2562 4.432 64.2375 4.544ZM65.1475 4.124L64.1815 4.194C64.1208 3.48467 64.0952 2.95733 64.1045 2.612C64.1138 2.262 64.1605 2.03333 64.2445 1.926C64.3285 1.814 64.4475 1.758 64.6015 1.758C64.7508 1.758 64.8652 1.807 64.9445 1.905C65.0238 2.003 65.0775 2.19433 65.1055 2.479C65.1382 2.76367 65.1522 3.18367 65.1475 3.739C65.1475 3.79967 65.1475 3.86267 65.1475 3.928C65.1522 3.98867 65.1522 4.054 65.1475 4.124ZM66.5615 4.446L65.7285 4.25C65.8778 3.718 66.0062 3.291 66.1135 2.969C66.2208 2.647 66.3235 2.416 66.4215 2.276C66.5195 2.136 66.6292 2.066 66.7505 2.066C67.0538 2.066 67.2265 2.164 67.2685 2.36C67.3152 2.55133 67.2685 2.82667 67.1285 3.186C66.9932 3.54067 66.8042 3.96067 66.5615 4.446ZM67.9965 5.076C67.8892 5.12267 67.7772 5.174 67.6605 5.23C67.5438 5.28133 67.4225 5.328 67.2965 5.37C67.1705 5.41667 67.0585 5.42367 66.9605 5.391C66.8625 5.35833 66.7878 5.27667 66.7365 5.146C66.6758 5.01067 66.6758 4.89167 66.7365 4.789C66.7972 4.68633 66.8742 4.60467 66.9675 4.544C67.0282 4.50667 67.0958 4.46467 67.1705 4.418C67.2498 4.37133 67.3268 4.32467 67.4015 4.278C67.5835 4.18467 67.7585 4.10067 67.9265 4.026C68.0945 3.95133 68.2485 3.92333 68.3885 3.942C68.5332 3.956 68.6475 4.04467 68.7315 4.208C68.7875 4.334 68.7828 4.44833 68.7175 4.551C68.6568 4.65367 68.5612 4.74933 68.4305 4.838C68.3045 4.922 68.1598 5.00133 67.9965 5.076ZM66.9465 6.602L67.3315 5.832C67.7095 5.98133 67.9965 6.10733 68.1925 6.21C68.3932 6.31267 68.5285 6.40133 68.5985 6.476C68.6685 6.55067 68.7035 6.63233 68.7035 6.721C68.7035 6.96367 68.6288 7.106 68.4795 7.148C68.3302 7.18533 68.1225 7.15267 67.8565 7.05C67.5905 6.94267 67.2872 6.79333 66.9465 6.602ZM64.7975 11.67C64.6248 12.048 64.4358 12.4517 64.2305 12.881C64.0252 13.3057 63.8548 13.6487 63.7195 13.91C63.5188 14.288 63.3532 14.5167 63.2225 14.596C63.0965 14.68 62.9518 14.6987 62.7885 14.652C62.6158 14.5867 62.5062 14.4583 62.4595 14.267C62.4128 14.0757 62.5038 13.7887 62.7325 13.406C62.8585 13.1773 63.0008 12.9253 63.1595 12.65C63.3228 12.3747 63.4862 12.097 63.6495 11.817C63.8128 11.537 63.9645 11.2733 64.1045 11.026C64.2725 10.7553 64.4218 10.5967 64.5525 10.55C64.6878 10.5033 64.8045 10.5127 64.9025 10.578C65.0472 10.662 65.0962 10.7997 65.0495 10.991C65.0028 11.1823 64.9188 11.4087 64.7975 11.67ZM73.7205 13.154C72.8759 13.154 72.1665 12.9627 71.5925 12.58C71.0232 12.1927 70.5939 11.656 70.3045 10.97C70.0152 10.284 69.8705 9.49067 69.8705 8.59C69.8705 7.47933 70.0479 6.51333 70.4025 5.692C70.7619 4.866 71.2612 4.22667 71.9005 3.774C72.5399 3.31667 73.2819 3.088 74.1265 3.088C74.7192 3.088 75.2419 3.19767 75.6945 3.417C76.1472 3.63633 76.5275 3.95833 76.8355 4.383C77.1482 4.803 77.3815 5.314 77.5355 5.916C77.6942 6.51333 77.7712 7.19467 77.7665 7.96C77.7619 9.09867 77.5869 10.053 77.2415 10.823C76.9009 11.593 76.4272 12.174 75.8205 12.566C75.2139 12.958 74.5139 13.154 73.7205 13.154ZM74.5045 11.208C74.9385 11.208 75.3165 11.089 75.6385 10.851C75.9652 10.613 76.2172 10.2537 76.3945 9.773C76.5719 9.28767 76.6605 8.67867 76.6605 7.946C76.6605 7.162 76.5695 6.47833 76.3875 5.895C76.2055 5.31167 75.9395 4.859 75.5895 4.537C75.2395 4.215 74.8125 4.054 74.3085 4.054C73.9165 4.054 73.5619 4.16833 73.2445 4.397C72.9272 4.62567 72.6752 4.97567 72.4885 5.447C72.3019 5.91367 72.2085 6.504 72.2085 7.218C72.2085 8.016 72.2995 8.71367 72.4815 9.311C72.6682 9.90833 72.9319 10.375 73.2725 10.711C73.6179 11.0423 74.0285 11.208 74.5045 11.208ZM72.6565 11.222C72.4839 11.222 72.3555 11.2687 72.2715 11.362C72.1922 11.4507 72.1525 11.614 72.1525 11.852C72.1525 11.992 72.2015 12.104 72.2995 12.188C72.4022 12.272 72.5539 12.314 72.7545 12.314C72.9085 12.314 73.0275 12.272 73.1115 12.188C73.2002 12.0993 73.2445 11.9687 73.2445 11.796C73.2445 11.586 73.1979 11.439 73.1045 11.355C73.0159 11.2663 72.8665 11.222 72.6565 11.222ZM71.4945 9.71C71.3079 9.71 71.1655 9.76367 71.0675 9.871C70.9695 9.97367 70.9205 10.1067 70.9205 10.27C70.9205 10.494 70.9765 10.662 71.0885 10.774C71.2052 10.886 71.3499 10.942 71.5225 10.942C71.7185 10.942 71.8725 10.893 71.9845 10.795C72.0965 10.6923 72.1525 10.564 72.1525 10.41C72.1525 10.172 72.0919 9.997 71.9705 9.885C71.8492 9.76833 71.6905 9.71 71.4945 9.71ZM71.1585 7.876C70.9625 7.876 70.8225 7.925 70.7385 8.023C70.6545 8.11633 70.6125 8.27267 70.6125 8.492C70.6125 8.618 70.6569 8.72767 70.7455 8.821C70.8389 8.90967 70.9905 8.954 71.2005 8.954C71.3405 8.954 71.4572 8.912 71.5505 8.828C71.6439 8.744 71.6905 8.60867 71.6905 8.422C71.6905 8.21667 71.6439 8.07433 71.5505 7.995C71.4572 7.91567 71.3265 7.876 71.1585 7.876ZM75.7225 4.166C75.6339 4.33867 75.5382 4.51367 75.4355 4.691C75.3329 4.86367 75.2279 5.03867 75.1205 5.216C74.9339 5.524 74.7752 5.72467 74.6445 5.818C74.5185 5.90667 74.3879 5.92067 74.2525 5.86C74.1079 5.78533 74.0425 5.664 74.0565 5.496C74.0705 5.32333 74.1685 5.06667 74.3505 4.726C74.4485 4.544 74.5512 4.362 74.6585 4.18C74.7705 3.998 74.8825 3.82067 74.9945 3.648C75.0459 3.564 75.1229 3.51733 75.2255 3.508C75.3282 3.494 75.4239 3.508 75.5125 3.55C75.6199 3.59667 75.7015 3.67367 75.7575 3.781C75.8135 3.88833 75.8019 4.01667 75.7225 4.166ZM73.6295 3.662C73.6389 3.68067 73.6459 3.70167 73.6505 3.725C73.6599 3.74367 73.6669 3.76467 73.6715 3.788C73.6949 3.87667 73.6785 3.95367 73.6225 4.019C73.5712 4.07967 73.5105 4.124 73.4405 4.152C73.3565 4.18 73.2632 4.19867 73.1605 4.208C73.0579 4.21267 72.9902 4.18233 72.9575 4.117C72.9389 4.07967 72.9202 4.04467 72.9015 4.012C72.8875 3.97467 72.8735 3.93967 72.8595 3.907C72.8315 3.84167 72.8525 3.77633 72.9225 3.711C72.9972 3.641 73.0765 3.592 73.1605 3.564C73.2539 3.536 73.3472 3.52667 73.4405 3.536C73.5385 3.54067 73.6015 3.58267 73.6295 3.662ZM75.7365 8.786C75.9559 8.85133 76.1799 8.92133 76.4085 8.996C76.6419 9.07067 76.8705 9.15 77.0945 9.234C77.2065 9.276 77.2812 9.34133 77.3185 9.43C77.3605 9.51867 77.3699 9.612 77.3465 9.71C77.3279 9.81267 77.2719 9.90367 77.1785 9.983C77.0852 10.0577 76.9685 10.0787 76.8285 10.046C76.6045 9.99 76.3782 9.93167 76.1495 9.871C75.9255 9.80567 75.7039 9.738 75.4845 9.668C74.9945 9.514 74.6912 9.37867 74.5745 9.262C74.4579 9.14067 74.4159 9.01467 74.4485 8.884C74.4859 8.73467 74.5885 8.64367 74.7565 8.611C74.9292 8.57367 75.2559 8.632 75.7365 8.786ZM70.3605 6.742C70.3839 6.73267 70.4072 6.72567 70.4305 6.721C70.4585 6.71167 70.4819 6.70467 70.5005 6.7C70.5332 6.69067 70.5589 6.68833 70.5775 6.693C70.6009 6.69767 70.6195 6.70933 70.6335 6.728C70.6522 6.742 70.6685 6.76067 70.6825 6.784C70.7012 6.81667 70.7105 6.847 70.7105 6.875C70.7152 6.89833 70.7105 6.92167 70.6965 6.945C70.6872 6.96367 70.6685 6.98 70.6405 6.994C70.6219 6.99867 70.6009 7.008 70.5775 7.022C70.5589 7.03133 70.5379 7.04067 70.5145 7.05C70.4819 7.064 70.4515 7.057 70.4235 7.029C70.3955 7.001 70.3699 6.966 70.3465 6.924C70.3325 6.882 70.3255 6.84233 70.3255 6.805C70.3302 6.76767 70.3419 6.74667 70.3605 6.742ZM76.7025 6.21C76.8425 6.168 76.9685 6.16567 77.0805 6.203C77.1925 6.24033 77.2719 6.34067 77.3185 6.504C77.3699 6.66267 77.3699 6.78867 77.3185 6.882C77.2672 6.97533 77.1645 7.05 77.0105 7.106C76.9125 7.148 76.8075 7.19 76.6955 7.232C76.5835 7.26933 76.4225 7.316 76.2125 7.372C75.8159 7.47 75.5359 7.512 75.3725 7.498C75.2092 7.484 75.1019 7.40467 75.0505 7.26C74.9945 7.092 75.0295 6.94967 75.1555 6.833C75.2815 6.71167 75.5359 6.588 75.9185 6.462C76.0819 6.406 76.2195 6.35933 76.3315 6.322C76.4482 6.28 76.5719 6.24267 76.7025 6.21ZM76.2545 11.082C76.2825 11.1147 76.3082 11.1473 76.3315 11.18C76.3595 11.208 76.3852 11.2407 76.4085 11.278C76.4599 11.3387 76.4879 11.4203 76.4925 11.523C76.4972 11.621 76.4319 11.7307 76.2965 11.852C76.1565 11.9827 76.0329 12.0317 75.9255 11.999C75.8182 11.9663 75.7319 11.9127 75.6665 11.838C75.6339 11.7867 75.6059 11.747 75.5825 11.719C75.5639 11.6863 75.5405 11.6513 75.5125 11.614C75.4519 11.516 75.4309 11.4133 75.4495 11.306C75.4729 11.1987 75.5405 11.1007 75.6525 11.012C75.7645 10.9187 75.8765 10.886 75.9885 10.914C76.1052 10.942 76.1939 10.998 76.2545 11.082ZM82.8563 13.294C82.007 13.294 81.286 13.1027 80.6933 12.72C80.1006 12.3327 79.6503 11.7773 79.3423 11.054C79.0343 10.326 78.8803 9.44867 78.8803 8.422C78.8803 7.43267 79.039 6.54833 79.3563 5.769C79.6783 4.985 80.1566 4.369 80.7913 3.921C81.426 3.46833 82.217 3.242 83.1643 3.242C83.6916 3.242 84.1746 3.34 84.6133 3.536C85.0566 3.72733 85.4393 4.01667 85.7613 4.404C86.0833 4.78667 86.333 5.26733 86.5103 5.846C86.6876 6.42467 86.7763 7.09667 86.7763 7.862C86.7763 8.97267 86.627 9.934 86.3283 10.746C86.0296 11.558 85.5886 12.1857 85.0053 12.629C84.422 13.0723 83.7056 13.294 82.8563 13.294ZM83.1643 10.648C83.673 10.648 84.1163 10.5267 84.4943 10.284C84.877 10.0413 85.1733 9.682 85.3833 9.206C85.5933 8.72533 85.6983 8.13267 85.6983 7.428C85.6983 6.84933 85.6003 6.31267 85.4043 5.818C85.213 5.32333 84.9283 4.92433 84.5503 4.621C84.1723 4.31767 83.7056 4.166 83.1503 4.166C82.5623 4.166 82.0816 4.31533 81.7083 4.614C81.335 4.91267 81.0596 5.30233 80.8823 5.783C80.705 6.259 80.6163 6.76533 80.6163 7.302C80.6163 8.04867 80.7143 8.66933 80.9103 9.164C81.111 9.65867 81.4003 10.0297 81.7783 10.277C82.161 10.5243 82.623 10.648 83.1643 10.648ZM83.4863 11.194C83.3416 11.194 83.2273 11.2407 83.1433 11.334C83.064 11.4227 83.0243 11.5767 83.0243 11.796C83.0243 11.9547 83.0663 12.076 83.1503 12.16C83.239 12.244 83.3603 12.286 83.5143 12.286C83.7383 12.286 83.8946 12.244 83.9833 12.16C84.072 12.0713 84.1163 11.9127 84.1163 11.684C84.1163 11.544 84.0673 11.4273 83.9693 11.334C83.8713 11.2407 83.7103 11.194 83.4863 11.194ZM81.9463 11.166C81.7176 11.166 81.5496 11.2173 81.4423 11.32C81.3396 11.4227 81.2883 11.558 81.2883 11.726C81.2883 11.9407 81.342 12.1063 81.4493 12.223C81.5613 12.3397 81.7363 12.398 81.9743 12.398C82.1516 12.398 82.287 12.3397 82.3803 12.223C82.4736 12.1063 82.5203 11.9687 82.5203 11.81C82.5203 11.614 82.469 11.4577 82.3663 11.341C82.2636 11.2243 82.1236 11.166 81.9463 11.166ZM80.6023 10.2C80.4436 10.2 80.3153 10.2443 80.2173 10.333C80.1193 10.4217 80.0703 10.5827 80.0703 10.816C80.0703 10.9607 80.1123 11.075 80.1963 11.159C80.285 11.2383 80.4436 11.278 80.6723 11.278C80.8216 11.278 80.9383 11.236 81.0223 11.152C81.1063 11.068 81.1483 10.9467 81.1483 10.788C81.1483 10.5967 81.1016 10.452 81.0083 10.354C80.915 10.2513 80.7796 10.2 80.6023 10.2ZM85.3623 5.118C85.1803 5.33267 85.0006 5.54733 84.8233 5.762C84.646 5.972 84.4663 6.168 84.2843 6.35C84.0743 6.574 83.8946 6.71867 83.7453 6.784C83.6006 6.84933 83.4723 6.84 83.3603 6.756C83.2296 6.658 83.183 6.52733 83.2203 6.364C83.2576 6.20067 83.3743 6.00467 83.5703 5.776C83.7943 5.51 83.9903 5.28133 84.1583 5.09C84.3263 4.894 84.4943 4.712 84.6623 4.544C84.7696 4.43667 84.8676 4.38067 84.9563 4.376C85.0496 4.37133 85.1523 4.418 85.2643 4.516C85.3716 4.60467 85.4346 4.705 85.4533 4.817C85.472 4.92433 85.4416 5.02467 85.3623 5.118ZM82.8143 4.222C82.8283 4.32467 82.8423 4.43433 82.8563 4.551C82.8703 4.663 82.8796 4.78667 82.8843 4.922C82.8983 5.216 82.875 5.41667 82.8143 5.524C82.7583 5.63133 82.6556 5.692 82.5063 5.706C82.3756 5.72 82.2636 5.68033 82.1703 5.587C82.077 5.489 81.9976 5.3 81.9323 5.02C81.9043 4.894 81.8786 4.77033 81.8553 4.649C81.8366 4.52767 81.8156 4.404 81.7923 4.278C81.7736 4.14267 81.8086 4.03767 81.8973 3.963C81.986 3.88833 82.1003 3.844 82.2403 3.83C82.3663 3.816 82.4876 3.84167 82.6043 3.907C82.7256 3.96767 82.7956 4.07267 82.8143 4.222ZM80.2383 6.938C80.4576 6.95667 80.6816 6.987 80.9103 7.029C81.1436 7.06633 81.3676 7.11067 81.5823 7.162C81.8156 7.218 81.9696 7.29267 82.0443 7.386C82.119 7.47467 82.1516 7.582 82.1423 7.708C82.1283 7.876 82.0653 7.99033 81.9533 8.051C81.8413 8.107 81.6756 8.13267 81.4563 8.128C81.2323 8.11867 81.0106 8.1 80.7913 8.072C80.572 8.044 80.3503 8.016 80.1263 7.988C79.9956 7.974 79.9046 7.90633 79.8533 7.785C79.802 7.659 79.7856 7.53067 79.8043 7.4C79.8183 7.26467 79.8626 7.15033 79.9373 7.057C80.012 6.96367 80.1123 6.924 80.2383 6.938ZM79.6643 8.744C79.6923 8.73 79.718 8.71833 79.7413 8.709C79.7646 8.69967 79.7903 8.688 79.8183 8.674C79.9023 8.63667 79.9793 8.62267 80.0493 8.632C80.1193 8.64133 80.1776 8.66933 80.2243 8.716C80.2756 8.758 80.313 8.80933 80.3363 8.87C80.3643 8.93067 80.3783 8.996 80.3783 9.066C80.3783 9.13133 80.362 9.19667 80.3293 9.262C80.2966 9.32267 80.2476 9.374 80.1823 9.416C80.1543 9.43467 80.124 9.45333 80.0913 9.472C80.0586 9.486 80.0283 9.50467 80.0003 9.528C79.9116 9.584 79.83 9.57933 79.7553 9.514C79.6853 9.44867 79.6316 9.36467 79.5943 9.262C79.5616 9.15467 79.55 9.04967 79.5593 8.947C79.5686 8.83967 79.6036 8.772 79.6643 8.744ZM86.0063 7.036C86.1183 7.02667 86.2116 7.057 86.2863 7.127C86.361 7.19233 86.4123 7.27867 86.4403 7.386C86.4683 7.50267 86.4683 7.61467 86.4403 7.722C86.417 7.82933 86.3563 7.89467 86.2583 7.918C86.0483 7.96467 85.8406 8.00667 85.6353 8.044C85.4346 8.07667 85.2363 8.10467 85.0403 8.128C84.8536 8.14667 84.6996 8.13033 84.5783 8.079C84.457 8.02767 84.3823 7.92267 84.3543 7.764C84.3263 7.58667 84.3613 7.45367 84.4593 7.365C84.562 7.27167 84.7276 7.204 84.9563 7.162C85.1336 7.134 85.3086 7.10833 85.4813 7.085C85.6586 7.06167 85.8336 7.04533 86.0063 7.036ZM85.4463 10.34C85.4603 10.3587 85.4766 10.3773 85.4953 10.396C85.514 10.41 85.5303 10.4287 85.5443 10.452C85.5723 10.4847 85.584 10.522 85.5793 10.564C85.5746 10.6013 85.5536 10.6387 85.5163 10.676C85.4743 10.718 85.4183 10.7483 85.3483 10.767C85.283 10.781 85.2316 10.7647 85.1943 10.718C85.1756 10.69 85.1546 10.662 85.1313 10.634C85.1126 10.606 85.0916 10.578 85.0683 10.55C85.0356 10.4987 85.024 10.452 85.0333 10.41C85.0426 10.3633 85.0683 10.326 85.1103 10.298C85.1523 10.27 85.206 10.256 85.2713 10.256C85.3413 10.256 85.3996 10.284 85.4463 10.34ZM88.5201 12.706C88.4781 11.264 88.4477 9.822 88.4291 8.38C88.4104 6.93333 88.4081 5.482 88.4221 4.026C88.4221 3.72267 88.4781 3.48933 88.5901 3.326C88.7067 3.158 88.8934 3.074 89.1501 3.074C89.4254 3.074 89.6121 3.16033 89.7101 3.333C89.8127 3.501 89.8641 3.73667 89.8641 4.04C89.8641 4.474 89.8594 4.90333 89.8501 5.328C89.8407 5.748 89.8361 6.168 89.8361 6.588C89.8361 6.77933 89.8874 6.89367 89.9901 6.931C90.0974 6.96833 90.2421 6.91467 90.4241 6.77C90.9934 6.31267 91.5721 5.81567 92.1601 5.279C92.7481 4.73767 93.3174 4.236 93.8681 3.774C94.0547 3.62 94.2181 3.508 94.3581 3.438C94.5027 3.368 94.6287 3.333 94.7361 3.333C94.8154 3.333 94.8877 3.35167 94.9531 3.389C95.0184 3.42167 95.0697 3.47067 95.1071 3.536C95.1444 3.59667 95.1631 3.669 95.1631 3.753C95.1631 3.865 95.1327 4.005 95.0721 4.173C95.0114 4.341 94.9181 4.54867 94.7921 4.796C94.4794 5.38867 94.1481 5.98833 93.7981 6.595C93.4481 7.20167 93.0934 7.848 92.7341 8.534C92.6361 8.716 92.5964 8.87 92.6151 8.996C92.6384 9.122 92.7154 9.25267 92.8461 9.388C93.3034 9.84533 93.6861 10.2303 93.9941 10.543C94.3021 10.8557 94.5494 11.1147 94.7361 11.32C94.9274 11.5253 95.0721 11.6933 95.1701 11.824C95.2681 11.9547 95.3334 12.069 95.3661 12.167C95.4034 12.2603 95.4221 12.3513 95.4221 12.44C95.4221 12.608 95.3637 12.7503 95.2471 12.867C95.1351 12.9837 94.9881 13.042 94.8061 13.042C94.7034 13.042 94.5937 13.014 94.4771 12.958C94.3651 12.8973 94.2087 12.7783 94.0081 12.601C93.8074 12.419 93.5297 12.153 93.1751 11.803C92.8204 11.4483 92.3514 10.9793 91.7681 10.396C91.4834 10.1067 91.2524 9.91767 91.0751 9.829C90.8977 9.74033 90.6994 9.696 90.4801 9.696C90.2281 9.696 90.0437 9.76833 89.9271 9.913C89.8151 10.053 89.7474 10.312 89.7241 10.69C89.7054 11.026 89.6984 11.3597 89.7031 11.691C89.7077 12.0223 89.7054 12.3607 89.6961 12.706C89.6914 13.0047 89.6494 13.2217 89.5701 13.357C89.4907 13.4923 89.3414 13.56 89.1221 13.56C88.8981 13.56 88.7441 13.4807 88.6601 13.322C88.5761 13.168 88.5294 12.9627 88.5201 12.706ZM94.4561 9.486C94.1854 9.486 93.9847 9.41833 93.8541 9.283C93.7234 9.143 93.6581 8.954 93.6581 8.716C93.6581 8.45 93.7281 8.25167 93.8681 8.121C94.0081 7.98567 94.2274 7.918 94.5261 7.918C94.7127 7.918 94.8761 7.99267 95.0161 8.142C95.1561 8.29133 95.2261 8.48267 95.2261 8.716C95.2261 8.94 95.1537 9.12433 95.0091 9.269C94.8644 9.41367 94.6801 9.486 94.4561 9.486ZM94.1901 4.124C94.2321 4.152 94.2764 4.18467 94.3231 4.222C94.3697 4.25467 94.4141 4.292 94.4561 4.334C94.5541 4.432 94.5984 4.52767 94.5891 4.621C94.5844 4.71433 94.5447 4.80067 94.4701 4.88C94.3954 4.964 94.3067 5.01533 94.2041 5.034C94.1061 5.05267 94.0034 5.02467 93.8961 4.95C93.8541 4.922 93.8144 4.894 93.7771 4.866C93.7444 4.83333 93.7094 4.796 93.6721 4.754C93.6021 4.67467 93.5717 4.593 93.5811 4.509C93.5904 4.42033 93.6254 4.33867 93.6861 4.264C93.7514 4.18467 93.8331 4.12867 93.9311 4.096C94.0291 4.05867 94.1154 4.068 94.1901 4.124ZM93.0981 4.978L92.7341 5.356C92.6921 5.31867 92.6734 5.27667 92.6781 5.23C92.6827 5.17867 92.7201 5.118 92.7901 5.048C92.8601 4.978 92.9184 4.94067 92.9651 4.936C93.0117 4.92667 93.0561 4.94067 93.0981 4.978ZM88.1001 11.222C88.3801 11.1847 88.6624 11.1543 88.9471 11.131C89.2317 11.1077 89.5141 11.0867 89.7941 11.068C90.1114 11.04 90.3494 11.0587 90.5081 11.124C90.6667 11.1893 90.7461 11.32 90.7461 11.516C90.7461 11.7027 90.6691 11.831 90.5151 11.901C90.3611 11.971 90.1441 12.02 89.8641 12.048C89.5794 12.0807 89.2947 12.1063 89.0101 12.125C88.7301 12.139 88.4501 12.1507 88.1701 12.16C87.8761 12.174 87.6614 12.146 87.5261 12.076C87.3954 12.0013 87.3301 11.8847 87.3301 11.726C87.3301 11.586 87.3884 11.4763 87.5051 11.397C87.6217 11.313 87.8201 11.2547 88.1001 11.222ZM89.1361 4.74C89.0474 4.74 88.9727 4.70967 88.9121 4.649C88.8561 4.58833 88.8281 4.52067 88.8281 4.446C88.8281 4.348 88.8537 4.271 88.9051 4.215C88.9611 4.15433 89.0521 4.124 89.1781 4.124C89.2621 4.124 89.3274 4.14967 89.3741 4.201C89.4207 4.24767 89.4441 4.306 89.4441 4.376C89.4441 4.49267 89.4161 4.58367 89.3601 4.649C89.3041 4.70967 89.2294 4.74 89.1361 4.74ZM91.0261 8.996C91.3387 8.996 91.5534 8.93767 91.6701 8.821C91.7914 8.70433 91.8521 8.492 91.8521 8.184C91.8521 8.016 91.7867 7.87367 91.6561 7.757C91.5254 7.64033 91.3621 7.582 91.1661 7.582C90.9234 7.582 90.7414 7.645 90.6201 7.771C90.4987 7.89233 90.4381 8.086 90.4381 8.352C90.4381 8.562 90.4941 8.723 90.6061 8.835C90.7181 8.94233 90.8581 8.996 91.0261 8.996ZM92.3281 7.372C92.5474 7.372 92.7037 7.31833 92.7971 7.211C92.8951 7.099 92.9441 6.94267 92.9441 6.742C92.9441 6.588 92.8974 6.46433 92.8041 6.371C92.7107 6.273 92.5801 6.224 92.4121 6.224C92.1974 6.224 92.0411 6.27767 91.9431 6.385C91.8451 6.48767 91.7961 6.62067 91.7961 6.784C91.7961 6.97067 91.8381 7.11533 91.9221 7.218C92.0107 7.32067 92.1461 7.372 92.3281 7.372Z" fill="white"/>
</g>
<defs>
<clipPath id="clip0_52_9">
<rect width="96" height="16" fill="white"/>
</clipPath>
</defs>
</svg>
