<svg width="16" height="16" viewBox="0 0 16 16" fill="none" xmlns="http://www.w3.org/2000/svg">
<g clip-path="url(#clip0_52_2)">
<rect width="16" height="16" rx="2" fill="#3F51B5"/>
<path d="M5.4 13C5.36733 12.3513 5.33233 11.705 5.295 11.061C5.26233 10.4123 5.22733 9.766 5.19 9.122C5.15733 8.47333 5.12467 7.82467 5.092 7.176C5.61 7.15733 5.967 7.10833 6.163 7.029C6.36367 6.945 6.464 6.812 6.464 6.63C6.464 6.462 6.35667 6.35467 6.142 6.308C5.932 6.26133 5.568 6.25667 5.05 6.294C5.036 6.17267 5.02433 6.05133 5.015 5.93C5.01033 5.804 5.008 5.68267 5.008 5.566C5.30667 5.54267 5.547 5.50767 5.729 5.461C5.911 5.40967 6.044 5.34433 6.128 5.265C6.212 5.181 6.254 5.08067 6.254 4.964C6.254 4.77733 6.13267 4.65833 5.89 4.607C5.64733 4.55567 5.33 4.54867 4.938 4.586C4.924 4.49267 4.91467 4.40167 4.91 4.313C4.91 4.21967 4.91 4.12867 4.91 4.04C4.91 3.746 4.98 3.54067 5.12 3.424C5.26467 3.30733 5.498 3.242 5.82 3.228C6.506 3.2 7.17333 3.2 7.822 3.228C8.47067 3.25133 9.07733 3.30267 9.642 3.382C9.97333 3.424 10.2137 3.515 10.363 3.655C10.517 3.795 10.594 3.96067 10.594 4.152C10.594 4.418 10.5077 4.61633 10.335 4.747C10.167 4.873 9.96867 4.98267 9.74 5.076C9.39 5.216 9.06333 5.32567 8.76 5.405C8.45667 5.47967 8.16733 5.57533 7.892 5.692C7.77533 5.73867 7.675 5.78533 7.591 5.832C7.51167 5.87867 7.444 5.93 7.388 5.986C7.332 6.04667 7.28767 6.11667 7.255 6.196C7.227 6.27533 7.206 6.378 7.192 6.504C7.178 6.62067 7.16867 6.73733 7.164 6.854C7.164 6.966 7.164 7.08267 7.164 7.204C7.164 7.36267 7.19433 7.477 7.255 7.547C7.31567 7.61233 7.45333 7.638 7.668 7.624C7.976 7.60067 8.284 7.56567 8.592 7.519C8.9 7.47233 9.208 7.442 9.516 7.428C9.71667 7.41867 9.866 7.46533 9.964 7.568C10.062 7.67067 10.111 7.78733 10.111 7.918C10.111 8.03933 10.069 8.15833 9.985 8.275C9.901 8.387 9.77733 8.45467 9.614 8.478C9.25 8.52 8.9 8.54567 8.564 8.555C8.228 8.55967 7.892 8.58533 7.556 8.632C7.36 8.65067 7.25267 8.72067 7.234 8.842C7.21533 8.95867 7.28533 9.04967 7.444 9.115C7.668 9.20833 7.88967 9.283 8.109 9.339C8.32833 9.395 8.55 9.472 8.774 9.57C8.89533 9.62133 8.984 9.69367 9.04 9.787C9.096 9.88033 9.124 9.97833 9.124 10.081C9.124 10.249 9.05167 10.396 8.907 10.522C8.767 10.6433 8.57333 10.662 8.326 10.578C8.12533 10.508 7.93633 10.4287 7.759 10.34C7.58633 10.2513 7.402 10.1767 7.206 10.116C7.01 10.0507 6.86067 10.046 6.758 10.102C6.66 10.1533 6.604 10.2747 6.59 10.466C6.55733 10.872 6.541 11.292 6.541 11.726C6.54567 12.16 6.52933 12.5847 6.492 13C6.48267 13.1213 6.45233 13.2193 6.401 13.294C6.34967 13.3733 6.28433 13.4293 6.205 13.462C6.12567 13.4993 6.03933 13.518 5.946 13.518C5.80133 13.518 5.67533 13.476 5.568 13.392C5.46067 13.3127 5.40467 13.182 5.4 13ZM7.752 5.02C7.92 5.02 8.053 4.96167 8.151 4.845C8.249 4.72833 8.298 4.57667 8.298 4.39C8.298 4.24067 8.24667 4.117 8.144 4.019C8.046 3.921 7.934 3.872 7.808 3.872C7.57 3.872 7.39967 3.921 7.297 4.019C7.199 4.11233 7.15 4.25 7.15 4.432C7.15 4.60467 7.199 4.747 7.297 4.859C7.39967 4.96633 7.55133 5.02 7.752 5.02Z" fill="white"/>
</g>
<defs>
<clipPath id="clip0_52_2">
<rect width="16" height="16" fill="white"/>
</clipPath>
</defs>
</svg>
